<?xml version="1.0" encoding="UTF-8"?>
<svg version="1.1" xmlns="http://www.w3.org/2000/svg" width="3000" height="1000">
<path d="M0 0 C990 0 1980 0 3000 0 C3000 330 3000 660 3000 1000 C2010 1000 1020 1000 0 1000 C0 670 0 340 0 0 Z " fill="#000000" transform="translate(0,0)"/>
<path d="M0 0 C177.84480976 0 177.84480976 0 197.8125 4.1875 C198.84455566 4.40035645 199.87661133 4.61321289 200.93994141 4.83251953 C223.47297756 9.74710361 243.17331378 19.8525683 255.96875 39.6875 C271.58014426 65.14608141 272.46226228 92.85331514 272.38818359 121.984375 C272.39061298 124.71217072 272.39750058 127.43995151 272.40411377 130.16773987 C272.41731479 136.74633364 272.41463619 143.3248236 272.40587585 149.9034211 C272.3990498 155.25458216 272.39820358 160.60571449 272.4014473 165.95687866 C272.401907 166.72375734 272.40236669 167.49063601 272.40284032 168.28075343 C272.40379966 169.83943519 272.4047723 171.39811693 272.4057581 172.95679867 C272.41427079 187.50118291 272.40454066 202.04551001 272.388357 216.58988488 C272.37493597 229.03667697 272.3773046 241.48338516 272.39111328 253.93017578 C272.40720514 268.44142979 272.41346974 282.95263411 272.40427649 297.4638958 C272.40332098 299.01381301 272.40237787 300.56373023 272.4014473 302.11364746 C272.40098447 302.87593883 272.40052164 303.63823019 272.40004479 304.4236213 C272.39746731 309.76488903 272.40179846 315.1061249 272.40888596 320.4473877 C272.41734047 326.96085019 272.41493754 333.47420437 272.39904372 339.98765463 C272.39121696 343.30311121 272.38961689 346.61824036 272.39799118 349.93371773 C272.47149339 382.00258828 272.47149339 382.00258828 265.75 396.375 C265.44989014 397.03927002 265.14978027 397.70354004 264.84057617 398.38793945 C262.2652608 403.87430608 259.01375362 408.46230651 255 413 C254.071875 414.22203125 254.071875 414.22203125 253.125 415.46875 C236.65797988 435.0838769 208.34006055 440.10998991 185 444 C123.95 444 62.9 444 0 444 C0 297.48 0 150.96 0 0 Z " fill="#FEFEFE" transform="translate(1241,275)"/>
<path d="M0 0 C1.01749329 -0.00807175 2.03498657 -0.01614349 3.08331299 -0.02445984 C5.2278885 -0.03819871 7.37248494 -0.04896573 9.51708984 -0.05688477 C11.66136312 -0.06832648 13.80560971 -0.08865191 15.94970703 -0.1184082 C35.79798283 -0.39258951 55.24273018 1.40717397 74.015625 8.23828125 C75.07523438 8.60695313 76.13484375 8.975625 77.2265625 9.35546875 C104.35752396 19.21541437 124.24619037 37.16011999 136.67578125 63.12109375 C141.29414692 73.86586286 144.06775813 84.72259029 146.015625 96.23828125 C146.30759766 97.93210937 146.30759766 97.93210937 146.60546875 99.66015625 C149.19422278 116.06189712 149.16583205 132.66372083 149.16088867 149.22583008 C149.1638894 151.26335206 149.16729399 153.30087347 149.17106628 155.33839417 C149.17981565 160.81790544 149.18224048 166.29740106 149.18288207 171.77691865 C149.18359753 175.21347541 149.1857411 178.6500283 149.18837929 182.08658409 C149.19760137 194.11249414 149.20171796 206.13839317 149.20092773 218.16430664 C149.20032718 229.31599153 149.21088286 240.46762801 149.2266714 251.61930066 C149.239807 261.24539216 149.24510915 270.87146794 149.24447232 280.49756831 C149.24421919 286.2240566 149.2469677 291.95050174 149.25765038 297.67698097 C149.26743397 303.06734664 149.26734136 308.4576288 149.26013374 313.84799767 C149.25910066 315.80812581 149.26137323 317.76825944 149.2674942 319.7283783 C149.31787479 337.00192776 148.52434574 354.36129777 144.890625 371.30078125 C144.57411987 372.7863855 144.57411987 372.7863855 144.2512207 374.30200195 C138.21227423 400.92487949 124.22200377 425.04675791 100.99511719 440.02734375 C95.21984351 443.56031828 89.18875055 446.47627473 83.015625 449.23828125 C81.50355469 449.94404297 81.50355469 449.94404297 79.9609375 450.6640625 C39.81274102 467.86282571 -16.21697352 465.93219798 -56.31494141 450.33154297 C-82.00907912 439.74061177 -101.06390645 421.82746172 -111.984375 396.23828125 C-121.4001311 373.32454634 -123.60413892 349.40777197 -123.48608398 324.84814453 C-123.48988176 322.54181084 -123.49539366 320.23547945 -123.50245667 317.92915344 C-123.51623375 311.75382726 -123.5053704 305.57878522 -123.48874545 299.40347528 C-123.47473134 292.89332095 -123.48137303 286.3831804 -123.48487854 279.87301636 C-123.48829216 268.95468824 -123.47431197 258.03646491 -123.45092773 247.11816406 C-123.42698502 235.93745826 -123.41994151 224.75689872 -123.43041992 213.57617188 C-123.44310762 200.01426669 -123.44048875 186.4524633 -123.42476082 172.89056015 C-123.41904425 167.74356376 -123.41904915 162.59661631 -123.42382622 157.44961929 C-123.42864078 151.3803169 -123.41831111 145.31121368 -123.39687157 139.24194908 C-123.39136549 137.03145583 -123.39078052 134.82094319 -123.39582443 132.61044884 C-123.46842652 96.19402728 -116.62913095 59.87093661 -90.734375 32.55078125 C-74.69887414 17.18111434 -54.12728393 8.45647181 -32.796875 3.48828125 C-31.44323853 3.17177612 -31.44323853 3.17177612 -30.06225586 2.84887695 C-20.10695967 0.64152031 -10.17439361 0.07970989 0 0 Z " fill="#FEFEFE" transform="translate(478.984375,266.76171875)"/>
<path d="M0 0 C37.62 0 75.24 0 114 0 C114 53.13 114 106.26 114 161 C128.19 161 142.38 161 157 161 C157 107.87 157 54.74 157 0 C194.62 0 232.24 0 271 0 C271 146.52 271 293.04 271 444 C233.38 444 195.76 444 157 444 C157 382.62 157 321.24 157 258 C142.81 258 128.62 258 114 258 C114 319.38 114 380.76 114 444 C76.38 444 38.76 444 0 444 C0 297.48 0 150.96 0 0 Z " fill="#00BE62" transform="translate(1828,275)"/>
<path d="M0 0 C37.62 0 75.24 0 114 0 C114.01981934 10.58046387 114.03963867 21.16092773 114.06005859 32.06201172 C114.1248734 65.91980293 114.19940644 99.77756652 114.28005161 133.63532358 C114.2925704 138.89490304 114.30500319 144.15448271 114.31738281 149.4140625 C114.31984881 150.46114518 114.3223148 151.50822786 114.32485552 152.58704032 C114.36457355 169.53874162 114.39732513 186.49044958 114.42749982 203.44217025 C114.45861957 220.83764943 114.49723124 238.23310037 114.54279006 255.62854779 C114.57066378 266.36147495 114.59270168 277.09438146 114.60726251 287.82733507 C114.61780886 295.18844108 114.63563586 302.54950709 114.65916704 309.91058294 C114.67252656 314.15679181 114.68269614 318.40294464 114.68421364 322.64917564 C114.68567534 326.54058027 114.69632828 330.43185007 114.71413441 334.32321323 C114.71896418 335.72714274 114.72048949 337.13108856 114.71827881 338.53502463 C114.61878085 353.40830195 114.61878085 353.40830195 120 367 C124.70217863 371.49773608 128.23183646 373.71849184 134.6875 374.375 C140.88658951 374.19855533 146.71999496 371.92923503 151.4375 367.9375 C156.26376188 358.86412766 156.43688579 349.29615156 156.39872742 339.23799133 C156.40417601 337.76831316 156.41093136 336.29863936 156.41886932 334.82897252 C156.4368 330.81761646 156.43634926 326.80644643 156.43273985 322.7950598 C156.43211368 318.45912257 156.44875779 314.12324651 156.46325684 309.78733826 C156.48600584 302.28409173 156.49792156 294.78089152 156.50238609 287.27761269 C156.50885678 276.42927173 156.53181034 265.58101437 156.55872939 254.73270717 C156.60196339 237.13016616 156.63194948 219.52762868 156.65356445 201.92504883 C156.6745843 184.83030464 156.70186818 167.73558929 156.73754883 150.64086914 C156.73974765 149.58636266 156.74194648 148.53185619 156.74421193 147.44539497 C156.75528184 142.15501051 156.7664746 136.86462631 156.77772844 131.57424223 C156.87086559 87.71617892 156.94003792 43.85812368 157 0 C194.95 0 232.9 0 272 0 C272.04418395 41.59748539 272.08107632 83.19494845 272.10213066 124.79245063 C272.10463174 129.71596322 272.10722041 134.63947576 272.10986328 139.56298828 C272.11065021 141.03311249 272.11065021 141.03311249 272.11145304 142.53293617 C272.12012901 158.35190256 272.13588332 174.17085424 272.15430559 189.98981194 C272.17308314 206.25081502 272.18413323 222.51181046 272.18817699 238.77282393 C272.19090585 248.7871232 272.19948888 258.80138089 272.21583293 268.81566735 C272.22649705 275.70544783 272.22957959 282.59520718 272.22700275 289.48499529 C272.22573594 293.44561584 272.22751992 297.40616434 272.23841095 301.3667717 C272.27570353 315.70810336 272.19975638 330.0115058 271.15377808 344.32388306 C271.0819475 345.33557474 271.01011692 346.34726641 270.93610966 347.38961542 C268.4344908 377.24482548 255.70555088 405.70066659 233.07421875 425.5859375 C209.07070735 444.43494646 177.42815414 452.06209687 147.3828125 452.203125 C146.40496796 452.20882507 145.42712341 452.21452515 144.41964722 452.22039795 C142.36083024 452.22977715 140.30199874 452.23635344 138.24316406 452.24023438 C135.16703493 452.24986835 132.09159607 452.28093134 129.015625 452.3125 C93.28431129 452.50235611 58.27568355 444.56680719 32 419 C31.36578125 418.41605469 30.7315625 417.83210938 30.078125 417.23046875 C20.80512986 408.47036051 15.31475725 397.409744 10 386 C9.48050781 384.88753906 8.96101562 383.77507812 8.42578125 382.62890625 C6.68318131 378.19363133 5.52993014 373.75662812 4.4375 369.125 C4.22931641 368.29742188 4.02113281 367.46984375 3.80664062 366.6171875 C-0.63837962 348.00105257 -0.28203975 329.19854662 -0.23213124 310.19772494 C-0.22340972 306.02552433 -0.22642299 301.853329 -0.22793579 297.68112183 C-0.2289792 290.47099244 -0.22275992 283.26089955 -0.21146011 276.05077934 C-0.19513368 265.62644963 -0.18998984 255.20213738 -0.18748413 244.77779628 C-0.18311818 227.86072465 -0.16983906 210.94367243 -0.15087891 194.02661133 C-0.13249154 177.60343522 -0.11834905 161.18026441 -0.10986328 144.75708008 C-0.10933783 143.74298089 -0.10881239 142.72888169 -0.10827102 141.68405222 C-0.10566075 136.59608474 -0.10313338 131.50811723 -0.10064721 126.42014968 C-0.07994899 84.28008255 -0.04309782 42.14005135 0 0 Z " fill="#FDFDFD" transform="translate(655,275)"/>
<path d="M0 0 C32.01 0 64.02 0 97 0 C97 146.52 97 293.04 97 444 C64.99 444 32.98 444 0 444 C-2.31002713 435.33739825 -4.6187518 426.67641515 -6.875 418 C-7.39321782 416.01041371 -7.91144733 414.02083047 -8.4296875 412.03125 C-8.81979004 410.53271484 -8.81979004 410.53271484 -9.21777344 409.00390625 C-10.47684134 404.168834 -11.73851775 399.33444278 -13 394.5 C-13.50001326 392.58333679 -14.00001324 390.66667012 -14.5 388.75 C-14.7475 387.80125 -14.995 386.8525 -15.25 385.875 C-28 337 -40.75 288.125 -53.5 239.25 C-53.7479834 238.29963867 -53.9959668 237.34927734 -54.25146484 236.37011719 C-54.74705992 234.46985113 -55.2421838 232.56946212 -55.73681641 230.66894531 C-57.05020255 225.62519574 -58.37374974 220.58437105 -59.7109375 215.546875 C-59.989375 214.49306641 -60.2678125 213.43925781 -60.5546875 212.35351562 C-61.09075888 210.32537891 -61.62969959 208.29799786 -62.171875 206.27148438 C-62.41164063 205.36205078 -62.65140625 204.45261719 -62.8984375 203.515625 C-63.11161621 202.71415039 -63.32479492 201.91267578 -63.54443359 201.08691406 C-64 199 -64 199 -64 196 C-64.66 196 -65.32 196 -66 196 C-66 277.84 -66 359.68 -66 444 C-98.01 444 -130.02 444 -163 444 C-163 297.81 -163 151.62 -163 1 C-130.99 1 -98.98 1 -66 1 C-59.42013889 20.73958333 -59.42013889 20.73958333 -56.984375 29.484375 C-55.92379761 33.2721514 -54.80868428 37.04238352 -53.6875 40.8125 C-52.16760615 45.93554916 -50.69521762 51.06971398 -49.265625 56.21875 C-48.96309814 57.30824951 -48.66057129 58.39774902 -48.34887695 59.52026367 C-47.75863107 61.65245381 -47.17105547 63.78538569 -46.58666992 65.91918945 C-44.8772782 72.09693013 -42.97907705 78.17683456 -40.92163086 84.24731445 C-39.7090774 87.86891452 -38.61931354 91.51800852 -37.5625 95.1875 C-37.13677953 96.64975728 -36.71099646 98.11199634 -36.28515625 99.57421875 C-36.07262207 100.30688965 -35.86008789 101.03956055 -35.64111328 101.79443359 C-34.6030486 105.36559747 -33.55083947 108.93257905 -32.5 112.5 C-32.0807114 113.92707811 -31.66144056 115.35416144 -31.2421875 116.78125 C-30.43932052 119.51174925 -29.63193307 122.24084059 -28.8203125 124.96875 C-26.92080772 131.36835572 -25.0555989 137.77464875 -23.26953125 144.20703125 C-22.96644043 145.29822266 -22.66334961 146.38941406 -22.35107422 147.51367188 C-21.75991885 149.64827673 -21.17151799 151.78364716 -20.58642578 153.91992188 C-18.87718084 160.09743699 -16.97899415 166.17707914 -14.92163086 172.24731445 C-13.70907732 175.86891476 -12.61932048 179.51800993 -11.5625 183.1875 C-11.13937716 184.6406408 -10.71619836 186.0937653 -10.29296875 187.546875 C-9.97465088 188.64418945 -9.97465088 188.64418945 -9.64990234 189.76367188 C-8.56676301 193.49077793 -7.47053362 197.21402221 -6.375 200.9375 C-6.18107666 201.59838623 -5.98715332 202.25927246 -5.78735352 202.94018555 C-4.21278487 208.30012127 -2.60533537 213.64888211 -1 219 C-0.67 146.73 -0.34 74.46 0 0 Z " fill="#FEFEFE" transform="translate(1117,275)"/>
<path d="M0 0 C36.3 0 72.6 0 110 0 C110.33 56.76 110.66 113.52 111 172 C112.65 166.72 114.3 161.44 116 156 C117.66015625 150.80859375 117.66015625 150.80859375 118.36914062 148.60180664 C120.77564871 141.08994249 122.96041468 133.56189644 124.9453125 125.92578125 C127.9454134 114.57159822 131.54971 103.37078013 135.125 92.1875 C137.26757009 85.47880813 139.17320976 78.74325087 140.9453125 71.92578125 C144.09417656 60.00858909 147.90299202 48.26273822 151.67041016 36.5300293 C154.21369695 28.50729672 156.44065305 20.39742608 158.64038086 12.2746582 C158.91889893 11.25718506 159.19741699 10.23971191 159.484375 9.19140625 C159.85127441 7.83317749 159.85127441 7.83317749 160.22558594 6.44750977 C161 4 161 4 163 0 C198.64 0 234.28 0 271 0 C269.22710681 6.50060836 267.47679994 12.86226331 265.3112793 19.21728516 C265.06022934 19.9625798 264.80917938 20.70787445 264.55052185 21.47575378 C263.72814991 23.91456981 262.90124542 26.35182141 262.07421875 28.7890625 C261.48401762 30.53591249 260.89408332 32.28285267 260.30439758 34.02987671 C258.74924545 38.63460317 257.19015704 43.23798766 255.63031006 47.84112549 C254.39996811 51.47400737 253.17241183 55.10782714 251.9450264 58.74170876 C244.11724924 81.91662243 236.22919851 105.07072335 228.31701374 128.2169342 C225.96183917 135.10828845 223.61547325 142.00260583 221.2734375 148.8984375 C220.93808487 149.88542633 220.60273224 150.87241516 220.25721741 151.88931274 C218.9603159 155.70656583 217.66369206 159.5239117 216.36865234 163.34179688 C215.70063289 165.31076409 215.03204644 167.27953905 214.362854 169.24810791 C213.73352607 171.09992755 213.10565076 172.95224167 212.47943115 174.80511475 C210.93698931 179.34765169 209.30273574 183.82655187 207.5390625 188.2890625 C204.19232133 197.54612297 206.51664972 204.74885956 209.75 213.75 C210.49442123 215.89941715 211.23792131 218.04915356 211.98046875 220.19921875 C212.51293213 221.72168213 212.51293213 221.72168213 213.05615234 223.27490234 C214.85574527 228.47072651 216.42135839 233.73393433 218 239 C219.10097726 242.64680268 220.20616326 246.29231999 221.3125 249.9375 C221.61148193 250.92395508 221.91046387 251.91041016 222.21850586 252.92675781 C224.29184268 259.74269413 226.44092673 266.53135299 228.625 273.3125 C230.71267126 279.79890717 232.67369696 286.29331199 234.4375 292.875 C236.94722286 302.220821 240.06129835 311.35037108 243.15625 320.515625 C245.22469622 326.64267586 247.14379458 332.80561751 249 339 C250.01737826 342.37605007 251.0390195 345.7507951 252.0625 349.125 C252.35044434 350.07431396 252.63838867 351.02362793 252.93505859 352.00170898 C256.24887889 362.8831561 259.67030553 373.73073141 263.09204102 384.57861328 C267.32581264 398.00329467 271.45336108 411.45878778 275.53125 424.93164062 C275.82257812 425.89134766 276.11390625 426.85105469 276.4140625 427.83984375 C276.68766602 428.74202637 276.96126953 429.64420898 277.24316406 430.57373047 C277.85747397 432.54308912 278.52619619 434.49541563 279.2109375 436.44140625 C280 439 280 439 280 443 C240.07 443 200.14 443 159 443 C157.08468353 437.25405059 155.35191077 431.76106225 154.01953125 425.8984375 C153.84574951 425.15193939 153.67196777 424.40544128 153.49291992 423.63632202 C153.12186281 422.04239385 152.75248386 420.4480742 152.38467407 418.85339355 C149.36480149 405.77270167 146.21820547 392.73554527 142.8125 379.75 C140.12253798 369.48399934 137.62323773 359.19681796 135.28833008 348.84472656 C133.35511101 340.35234813 131.20465178 331.92475309 129 323.5 C126.52786673 314.04962704 124.16800273 304.58875114 122 295.0625 C118.53904803 279.9929383 114.75005787 265.00023148 111 250 C110.67 314.02 110.34 378.04 110 444 C73.7 444 37.4 444 0 444 C0 297.48 0 150.96 0 0 Z " fill="#00BE62" transform="translate(2633,275)"/>
<path d="M0 0 C3.12222726 -0.00435288 6.24301338 -0.04072939 9.36499023 -0.07861328 C22.86892696 -0.15326707 35.44967315 1.27200135 48.58959961 4.37060547 C49.27582901 4.53083191 49.96205841 4.69105835 50.66908264 4.85614014 C77.15141103 11.13369964 98.56531715 27.35840891 113.30053711 49.99951172 C114.79633385 52.42543587 116.21280668 54.87542062 117.58959961 57.37060547 C118.23348633 58.53462891 118.23348633 58.53462891 118.89038086 59.72216797 C130.41330621 81.62642854 132.94928837 105.34565263 132.78491211 129.65576172 C132.78195892 131.14758147 132.77992638 132.63940333 132.77880859 134.13122559 C132.76846904 139.56521786 132.74054823 144.99916531 132.71459961 150.43310547 C132.67334961 162.62248047 132.63209961 174.81185547 132.58959961 187.37060547 C94.63959961 187.37060547 56.68959961 187.37060547 17.58959961 187.37060547 C17.33959961 138.37060547 17.33959961 138.37060547 17.29174805 122.92919922 C17.25850624 118.34018871 17.25850624 118.34018871 17.22003174 113.7512207 C17.20546874 111.71577785 17.19864819 109.68027025 17.19805908 107.64477539 C17.19563278 104.5516532 17.16822724 101.45963007 17.13549805 98.36669922 C17.14303415 97.0186747 17.14303415 97.0186747 17.1507225 95.64341736 C17.03246055 88.48064215 15.28959858 83.00310447 10.08959961 77.93310547 C4.53477236 74.46133844 -2.04891634 74.65429895 -8.41040039 75.37060547 C-13.85765195 78.28877595 -15.40312936 81.89512799 -17.57397366 87.53633142 C-18.9980185 92.36177898 -18.96104863 97.04698078 -18.91833496 102.0463562 C-18.9276949 103.74931372 -18.9276949 103.74931372 -18.93724394 105.48667443 C-18.95312724 109.26965138 -18.94058717 113.05197984 -18.92797852 116.83496094 C-18.93120242 119.55586059 -18.94038157 122.2767332 -18.94921875 124.99761963 C-18.96696002 131.60842984 -18.96318336 138.21905789 -18.95156819 144.8298751 C-18.94251524 150.20616971 -18.9413179 155.58241347 -18.94566345 160.95871353 C-18.94627638 161.72544438 -18.94688932 162.49217523 -18.94752082 163.28214035 C-18.9487998 164.84002225 -18.95009665 166.39790414 -18.95141119 167.955786 C-18.96280452 182.548205 -18.9497237 197.14052331 -18.92820972 211.73292579 C-18.91034702 224.23541242 -18.91343841 236.73775043 -18.93188477 249.24023438 C-18.95332593 263.77920956 -18.96169848 278.31809656 -18.94943571 292.85708535 C-18.9481616 294.40967884 -18.94690411 295.96227235 -18.94566345 297.51486588 C-18.94504635 298.27865011 -18.94442925 299.04243434 -18.94379345 299.82936355 C-18.94034973 305.19394097 -18.94614786 310.55846214 -18.95558167 315.92303085 C-18.9668395 322.46839934 -18.96368288 329.01357614 -18.94245869 335.55892287 C-18.93199743 338.89424899 -18.92992 342.22899421 -18.9410553 345.56435776 C-18.9520413 349.19018214 -18.93820861 352.81511908 -18.91833496 356.44088745 C-18.93171929 358.00074995 -18.93171929 358.00074995 -18.94537401 359.59212482 C-18.86114041 367.55527767 -17.85001058 376.47340854 -12.39675951 382.65213001 C-8.05740649 386.40627074 -3.44174975 385.76671723 2.09350586 385.69873047 C5.96184227 385.33566873 8.31275367 384.83407815 11.12957382 382.14459801 C16.57582271 375.52717729 17.17700062 367.35332681 17.13549805 359.13769531 C17.14589237 358.04614954 17.1562867 356.95460377 17.166996 355.82998085 C17.1959156 352.33034003 17.19806072 348.83129095 17.19897461 345.33154297 C17.21298459 343.15745852 17.22876521 340.98338474 17.24633789 338.80932617 C17.2988429 330.78819754 17.31718808 322.76687463 17.33959961 314.74560547 C17.42209961 296.80185547 17.50459961 278.85810547 17.58959961 260.37060547 C55.53959961 260.37060547 93.48959961 260.37060547 132.58959961 260.37060547 C132.68241211 281.06779297 132.68241211 281.06779297 132.77709961 302.18310547 C132.80441162 306.49993408 132.83172363 310.8167627 132.85986328 315.2644043 C132.87341309 320.63757324 132.87341309 320.63757324 132.87593079 323.1726532 C132.88046305 324.90017534 132.89085384 326.62768952 132.90632629 328.35514832 C133.04104625 344.22418369 131.522404 359.69886221 127.33959961 375.05810547 C127.13125488 375.83226807 126.92291016 376.60643066 126.70825195 377.40405273 C118.51398491 406.47022913 99.92760646 430.43517624 73.64526367 445.25683594 C35.89371571 465.7108219 -12.96969281 466.45017672 -53.63305664 454.72998047 C-69.37467748 449.88640483 -83.68925641 442.91098191 -96.41040039 432.37060547 C-97.27149414 431.68482422 -98.13258789 430.99904297 -99.01977539 430.29248047 C-110.6542471 420.53686754 -117.56176161 408.16222317 -123.41040039 394.37060547 C-124.18383789 392.69417969 -124.18383789 392.69417969 -124.97290039 390.98388672 C-126.61293939 386.86150607 -127.57905038 382.82875489 -128.47290039 378.49560547 C-128.63338867 377.74408203 -128.79387695 376.99255859 -128.95922852 376.21826172 C-129.26407519 374.79074676 -129.56604318 373.36261071 -129.86376953 371.93359375 C-130.17909281 370.45513739 -130.50557052 368.97877531 -130.86236989 367.50977695 C-132.22800443 361.75318368 -133.00491875 356.07144045 -133.51724243 350.181427 C-133.60144333 349.22600639 -133.68564424 348.27058579 -133.77239668 347.28621304 C-134.6155605 336.98881163 -134.70696303 326.72337438 -134.70092773 316.39746094 C-134.70693374 314.30174018 -134.71374391 312.20602159 -134.72128296 310.11030579 C-134.73873776 304.48799487 -134.74362949 298.86574504 -134.74491453 293.24340963 C-134.74634824 289.71229661 -134.75064052 286.18119853 -134.75590897 282.65008926 C-134.77434009 270.27892339 -134.78258815 257.90780024 -134.78100586 245.53662109 C-134.77980577 234.08841793 -134.80090022 222.64040366 -134.83249319 211.19224823 C-134.85882104 201.29165241 -134.86936632 191.39111768 -134.86809504 181.49048722 C-134.86759031 175.60896569 -134.87299813 169.72761252 -134.89445114 163.84612656 C-135.05180539 117.51395106 -134.24265993 70.05432908 -100.09790039 34.68310547 C-72.75740618 8.32581022 -37.00539395 -0.0057493 0 0 Z " fill="#00BD62" transform="translate(1674.410400390625,266.62939453125)"/>
<path d="M0 0 C1.57533508 0.00114807 1.57533508 0.00114807 3.18249512 0.00231934 C19.00285572 0.04386788 34.09125451 0.78037064 49.3125 5.5 C50.30628662 5.80776367 51.30007324 6.11552734 52.32397461 6.43261719 C58.22089319 8.32869694 63.86058463 10.42682012 69.375 13.25 C70.05127441 13.59361572 70.72754883 13.93723145 71.42431641 14.29125977 C77.50487692 17.46149738 82.99317908 21.16512572 88.3125 25.5 C89.15167969 26.17546875 89.99085938 26.8509375 90.85546875 27.546875 C108.0940155 42.19295813 119.37992599 63.48335213 125.0625 85.125 C125.26125732 85.8567041 125.46001465 86.5884082 125.66479492 87.34228516 C130.87581036 108.58392974 129.54787615 131.06743571 129.4375 152.75 C129.39625 164.2175 129.355 175.685 129.3125 187.5 C91.3625 187.5 53.4125 187.5 14.3125 187.5 C14.0625 139.0625 14.0625 139.0625 14.01464844 123.80688477 C13.98140047 119.26712182 13.98140047 119.26712182 13.94293213 114.72740173 C13.92838358 112.71616986 13.92154913 110.70487267 13.92095947 108.69358826 C13.91852913 105.63456688 13.89109267 102.57665081 13.85839844 99.51782227 C13.86593454 98.18924745 13.86593454 98.18924745 13.87362289 96.83383274 C13.77259433 90.76582454 12.54223024 85.70362408 9.3125 80.5 C4.43747952 76.52039144 0.57614611 75.34198239 -5.625 75.25 C-6.66527344 75.22421875 -7.70554687 75.1984375 -8.77734375 75.171875 C-12.03851401 75.53957742 -13.23534255 76.41539187 -15.6875 78.5 C-16.3475 78.5 -17.0075 78.5 -17.6875 78.5 C-21.06437312 88.11110041 -23.13596647 96.77385597 -23.07518005 106.98556519 C-23.08056559 108.08835064 -23.08595113 109.1911361 -23.09149987 110.32733929 C-23.10571937 113.99422118 -23.0986904 117.660739 -23.09155273 121.32763672 C-23.09725945 123.96824267 -23.10412509 126.60882317 -23.11235046 129.24942017 C-23.12948722 135.66053711 -23.13038916 142.07155583 -23.12513756 148.48268972 C-23.12108495 153.69733347 -23.12255232 158.91194834 -23.12788582 164.12659073 C-23.12863424 164.87069448 -23.12938266 165.61479822 -23.13015376 166.38145057 C-23.13168535 167.8934292 -23.1332237 169.40540782 -23.13476873 170.91738643 C-23.1484753 185.07489354 -23.14306913 199.23234528 -23.13158352 213.38985111 C-23.12165361 226.31994395 -23.13459087 239.24989364 -23.15851771 252.17996441 C-23.18294549 265.48176626 -23.19250753 278.78350154 -23.18586498 292.08532536 C-23.18238085 299.54320192 -23.1845513 307.00096846 -23.20211601 314.45882797 C-23.21688415 320.80760595 -23.21741361 327.15619642 -23.2000451 333.50497089 C-23.19157022 336.73911897 -23.19149244 339.97286629 -23.20469666 343.20700836 C-23.55824564 364.3000456 -23.55824564 364.3000456 -15.6875 383.5 C-10.70810075 387.13242207 -3.49740426 386.12863429 2.3125 385.5 C6.18558455 384.12588584 8.38619971 382.18954397 10.35546875 378.59765625 C13.33453355 371.31083578 13.4717274 363.84873248 13.51782227 356.08837891 C13.52785499 355.03696402 13.53788771 353.98554913 13.54822445 352.90227318 C13.57952111 349.51039178 13.60434417 346.11849865 13.62890625 342.7265625 C13.64731784 340.62784451 13.66615495 338.52913021 13.6854248 336.43041992 C13.7537725 328.66199027 13.81388925 320.89348996 13.875 313.125 C14.019375 295.75875 14.16375 278.3925 14.3125 260.5 C52.2625 260.5 90.2125 260.5 129.3125 260.5 C129.374375 280.17625 129.374375 280.17625 129.4375 300.25 C129.45570801 304.34889648 129.47391602 308.44779297 129.49267578 312.67089844 C129.50170898 317.78564453 129.50170898 317.78564453 129.50338745 320.20123291 C129.50640248 321.8420318 129.51331491 323.48282708 129.52365112 325.12359619 C129.62971354 342.89214467 128.91292962 360.50588198 123.3125 377.5 C122.95478516 378.60359863 122.95478516 378.60359863 122.58984375 379.72949219 C113.05785106 408.62484188 95.50173615 432.32314898 68.10498047 446.65478516 C58.54356321 451.36026384 48.74049701 455.21872201 38.3125 457.5 C37.52327148 457.68046875 36.73404297 457.8609375 35.92089844 458.046875 C8.73473985 464.05441732 -19.50993125 462.94621167 -46.6875 457.5 C-47.82372803 457.27570313 -47.82372803 457.27570313 -48.98291016 457.046875 C-69.81875441 452.73084301 -88.81665982 442.47657861 -104.6875 428.5 C-105.63882813 427.69175781 -105.63882813 427.69175781 -106.609375 426.8671875 C-126.87266123 408.3699675 -132.92163195 378.24488503 -136.6875 352.5 C-136.8577428 351.48174605 -137.02798559 350.46349211 -137.20338726 349.41438198 C-137.75521199 344.95250233 -137.83563999 340.61583981 -137.83467102 336.12599182 C-137.83834771 335.20181094 -137.8420244 334.27763005 -137.8458125 333.32544369 C-137.85679677 330.23852249 -137.86068436 327.15163503 -137.86450195 324.06469727 C-137.87077101 321.84647516 -137.8774182 319.62825411 -137.88441467 317.41003418 C-137.9054203 310.12883225 -137.91581984 302.84763022 -137.92578125 295.56640625 C-137.92983134 293.05117215 -137.93394834 290.53593815 -137.93813133 288.02070427 C-137.95500073 277.54543803 -137.96963062 267.0701729 -137.97688007 256.59489536 C-137.97878953 253.88023947 -137.98070991 251.16558359 -137.98266602 248.45092773 C-137.98314976 247.77633091 -137.9836335 247.10173409 -137.9841319 246.40669494 C-137.99240392 235.51750363 -138.01769246 224.62842319 -138.05024669 213.73928011 C-138.08350921 202.52018395 -138.10101502 191.30112751 -138.10452431 180.08197826 C-138.1068603 173.79905507 -138.11562864 167.51630689 -138.14098549 161.23343086 C-138.16451863 155.30635692 -138.16839954 149.37957006 -138.15822411 143.45246124 C-138.15773456 141.29686202 -138.16387932 139.14124743 -138.17778015 136.98569298 C-138.40813015 99.09295232 -130.05798688 62.25085109 -103.0625 34.5 C-89.15500577 20.7067357 -72.38024472 11.92634485 -53.75 6.125 C-53.03763184 5.89844727 -52.32526367 5.67189453 -51.59130859 5.43847656 C-34.77488046 0.5710447 -17.38376135 -0.07349992 0 0 Z " fill="#00BE62" transform="translate(2482.6875,266.5)"/>
<path d="M0 0 C1.07967041 0.16822266 1.07967041 0.16822266 2.18115234 0.33984375 C27.26103302 4.27203893 52.25188691 15.53382874 68 36 C70.19633773 39.24033683 72.14349492 42.55546904 74 46 C74.36738281 46.64324219 74.73476563 47.28648437 75.11328125 47.94921875 C82.70949063 61.93914877 84.33540005 77.87550222 84.1953125 93.51953125 C84.19329834 94.60729858 84.19128418 95.69506592 84.18920898 96.8157959 C84.17887615 100.81474119 84.15095553 104.81362559 84.125 108.8125 C84.08375 117.784375 84.0425 126.75625 84 136 C50.34 136 16.68 136 -18 136 C-18.33 120.82 -18.66 105.64 -19 90 C-22.45424418 77.94359764 -22.45424418 77.94359764 -31.1875 70 C-37.43332802 68.36175003 -44.0051896 67.57592003 -49.9375 70.625 C-55.43468805 74.88812543 -57.40872829 79.35128663 -59 86 C-59.2942247 88.84815775 -59.35074615 91.67706335 -59.37109375 94.5390625 C-59.38012222 95.34177582 -59.3891507 96.14448914 -59.39845276 96.9715271 C-59.4128911 98.66408603 -59.42182594 100.35669996 -59.42553711 102.04931641 C-59.43737309 104.5976756 -59.48656667 107.14356102 -59.53710938 109.69140625 C-59.6532523 121.22770733 -58.50278405 130.52339281 -51.71875 140.28125 C-50.9865625 141.0134375 -50.254375 141.745625 -49.5 142.5 C-48.71496094 143.30179688 -47.92992187 144.10359375 -47.12109375 144.9296875 C-46.42113281 145.61289062 -45.72117187 146.29609375 -45 147 C-44.195625 147.86625 -43.39125 148.7325 -42.5625 149.625 C-33.22841866 158.27609978 -22.79759227 164.60382187 -11.96191406 171.1953125 C3.03053373 180.33017683 17.86356275 189.57676861 32 200 C32.87422607 200.63881104 32.87422607 200.63881104 33.76611328 201.29052734 C61.28705393 221.48829923 83.08271888 248.88064358 90 283 C90.73019604 288.16909814 91.12910487 293.14094416 91.14526367 298.37133789 C91.15030159 299.4049646 91.15030159 299.4049646 91.15544128 300.45947266 C91.16485658 302.71388609 91.16689004 304.96822443 91.16796875 307.22265625 C91.17118936 308.81196624 91.17455401 310.40127593 91.17805481 311.99058533 C91.18402369 315.31656581 91.18589717 318.6425204 91.18530273 321.96850586 C91.18520159 326.18856473 91.19881468 330.40845355 91.21607494 334.62847233 C91.22730857 337.91201 91.22921845 341.19550814 91.22869301 344.47906303 C91.2298576 346.0324709 91.23419162 347.58588032 91.24202538 349.13926888 C91.36072595 375.12086803 86.31828006 399.63281958 71 421 C70.53207031 421.68449219 70.06414062 422.36898438 69.58203125 423.07421875 C54.53141155 442.94103675 22.29282697 452.52259755 -1 456 C-1.83289551 456.13390137 -2.66579102 456.26780273 -3.52392578 456.40576172 C-33.11841084 461.0581927 -63.7665445 460.67114378 -93 454 C-94.18722656 453.74734375 -95.37445313 453.4946875 -96.59765625 453.234375 C-111.31561845 449.77132507 -125.93301345 443.4801009 -137 433 C-138.051875 432.06414062 -138.051875 432.06414062 -139.125 431.109375 C-157.43754345 414.04541406 -164.69319789 386.19441432 -166 362 C-166.16066419 356.18242582 -166.11761527 350.3621181 -166.09765625 344.54296875 C-166.09618131 343.08679238 -166.09516401 341.63061548 -166.09460449 340.17443848 C-166.0894156 334.84545077 -166.07545472 329.51647449 -166.0625 324.1875 C-166.041875 312.245625 -166.02125 300.30375 -166 288 C-130.69 288 -95.38 288 -59 288 C-58.6875 328.9375 -58.6875 328.9375 -58.61206055 341.82006836 C-58.57545698 345.66128243 -58.57545698 345.66128243 -58.5349884 349.50245667 C-58.51893535 351.20118568 -58.50858209 352.89997483 -58.50288391 354.59877014 C-58.49306394 357.18587971 -58.46463518 359.77221601 -58.43237305 362.35913086 C-58.43379901 363.10432197 -58.43522497 363.84951307 -58.43669415 364.61728573 C-58.31669031 371.41110154 -56.95772361 377.64069205 -52.5625 382.9375 C-46.91144951 387.48590649 -42.10301597 387.65042152 -35 387 C-30.00997905 385.33665968 -26.56934768 382.58618248 -24 378 C-19.45189517 367.02216742 -19.37876184 356.12513859 -19.47851562 344.43188477 C-19.49999071 341.4387943 -19.47860375 338.44809673 -19.453125 335.45507812 C-19.42353402 315.84703957 -23.91557059 302.45864308 -37.30078125 287.6796875 C-45.19933824 279.8382836 -53.49498776 273.3286801 -62.8125 267.25 C-64.00670972 266.46176949 -65.20063448 265.67310709 -66.39428711 264.8840332 C-74.36678597 259.63278923 -82.46134846 254.60018247 -90.61376953 249.63305664 C-103.03556444 241.99511858 -114.76678014 233.29029714 -126 224 C-126.55558594 223.566875 -127.11117187 223.13375 -127.68359375 222.6875 C-142.55737887 210.94300474 -154.45947825 191.94894615 -160.875 174.25 C-161.14908691 173.51394531 -161.42317383 172.77789062 -161.70556641 172.01953125 C-167.27210676 155.62743477 -167.50799981 138.40304532 -167.44604492 121.27661133 C-167.43753619 117.70270046 -167.46641205 114.13039498 -167.49804688 110.55664062 C-167.59159658 80.00436166 -162.16665484 50.30523892 -139.98046875 27.89453125 C-138.99090813 26.9256583 -137.99771477 25.96047397 -137 25 C-135.84951172 23.89205078 -135.84951172 23.89205078 -134.67578125 22.76171875 C-123.23190463 12.79575988 -108.64218549 6.41898748 -94 3 C-92.96875 2.68289063 -91.9375 2.36578125 -90.875 2.0390625 C-62.21535295 -6.19646826 -29.08993266 -4.91561928 0 0 Z " fill="#FEFEFE" transform="translate(242,269)"/>
<path d="M0 0 C63.69 0 127.38 0 193 0 C193 29.37 193 58.74 193 89 C166.93 89 140.86 89 114 89 C114 115.73 114 142.46 114 170 C138.42 170 162.84 170 188 170 C188 198.38 188 226.76 188 256 C163.58 256 139.16 256 114 256 C114 288.01 114 320.02 114 353 C142.05 353 170.1 353 199 353 C199 382.37 199 411.74 199 442 C133.33 442 67.66 442 0 442 C0 296.14 0 150.28 0 0 Z " fill="#00BE62" transform="translate(2127,276)"/>
<path d="M0 0 C5.5007475 3.25554444 8.60895383 6.92398919 11.0625 12.8125 C11.86062931 16.15010304 12.18820166 19.24215508 12.19113445 22.66893482 C12.1943589 23.62492347 12.19758335 24.58091211 12.2009055 25.56587011 C12.1985826 27.12918169 12.1985826 27.12918169 12.19621277 28.72407532 C12.19847833 29.83751271 12.20074388 30.9509501 12.20307809 32.09812802 C12.20941849 35.8366694 12.20858869 39.57517453 12.20776367 43.3137207 C12.21075514 45.99110042 12.21412926 48.66847728 12.21794128 51.34585571 C12.22624497 57.86838772 12.228996 64.39091069 12.22955366 70.91344754 C12.23002897 76.2159883 12.23208448 81.51852608 12.23525429 86.8210659 C12.24406023 101.85814662 12.24867378 116.89522021 12.24792381 131.93230353 C12.24788386 132.74282451 12.2478439 133.5533455 12.24780273 134.38842773 C12.24776185 135.19993958 12.24772097 136.01145142 12.24767885 136.84755453 C12.24727244 149.99799251 12.25684095 163.14840186 12.2709411 176.29883156 C12.28530822 189.80493874 12.29221109 203.31103195 12.29134732 216.81714696 C12.29101546 224.39844325 12.29375782 231.97970951 12.30452538 239.56099892 C12.31363481 246.0161486 12.315802 252.47125464 12.30901595 258.92640797 C12.30575292 262.21852719 12.30677504 265.51054543 12.3143692 268.80265999 C12.32207643 272.37517277 12.31745248 275.94746577 12.30973816 279.51997375 C12.31488172 280.55548931 12.32002529 281.59100486 12.32532471 282.65789968 C12.28528954 291.04843944 11.48553225 298.03370969 6.0625 304.8125 C-0.02206701 310.72139709 -5.12214657 311.29177905 -13.4140625 311.21484375 C-18.65521618 310.61635281 -21.50587234 308.72488709 -24.9375 304.8125 C-31.12445638 296.97776127 -31.08638084 289.4182449 -31.08467102 279.75616455 C-31.08834771 278.63920031 -31.0920244 277.52223608 -31.0958125 276.37142444 C-31.10682988 272.6268434 -31.11068986 268.88229012 -31.11450195 265.13769531 C-31.12076796 262.45356075 -31.12740231 259.76942913 -31.13441467 257.08529663 C-31.15413837 249.0313264 -31.16423862 240.97735499 -31.17314246 232.92336667 C-31.17753077 229.12716092 -31.18289605 225.33095655 -31.18813133 221.53475189 C-31.20513706 208.91061823 -31.21963143 196.28648542 -31.22688007 183.66234207 C-31.22878983 180.38947804 -31.23071019 177.11661401 -31.23266602 173.84375 C-31.23314976 173.03033767 -31.2336335 172.21692533 -31.2341319 171.37886414 C-31.24243314 158.20071034 -31.26777458 145.02264729 -31.30024669 131.84453312 C-31.3333379 118.30448448 -31.35133056 104.76448194 -31.35452431 91.22439265 C-31.35668715 83.62623507 -31.36540297 76.02820995 -31.39098549 68.43009186 C-31.41272043 61.95998774 -31.42072911 55.49004829 -31.41101871 49.0199118 C-31.40648243 45.72134999 -31.4105153 42.4231977 -31.42778015 39.12466812 C-31.44548224 35.54175006 -31.43840003 31.95968888 -31.42524719 28.37677002 C-31.43621644 27.34387132 -31.44718568 26.31097262 -31.45848733 25.24677396 C-31.38700836 17.16115475 -29.71659493 10.24980163 -24.5625 3.875 C-17.39664179 -1.75531716 -8.7449192 -3.35605452 0 0 Z " fill="#000000" transform="translate(500.9375,342.1875)"/>
<path d="M0 0 C26.20588235 0 26.20588235 0 32.6875 5.125 C40.62919577 14.99845961 44.46907539 23.45850044 44.39440918 36.22676086 C44.40354584 37.71405025 44.40354584 37.71405025 44.41286707 39.23138589 C44.42943521 42.53368888 44.42473001 45.83560367 44.41992188 49.13793945 C44.4272658 51.51385903 44.43585297 53.88977505 44.44558716 56.26568604 C44.46777819 62.70586775 44.47073501 69.14592141 44.46883965 75.5861361 C44.4680491 79.61305288 44.47296699 83.63994946 44.47932434 87.66686058 C44.48142368 89.0224939 44.48352128 90.37812721 44.48561716 91.73376054 C44.48666069 92.40863238 44.48770422 93.08350423 44.48877937 93.77882674 C44.50765654 106.52516591 44.50663935 119.27144746 44.49981004 132.01779481 C44.49423689 143.65865383 44.51505467 155.29929261 44.54817051 166.94010017 C44.58196777 178.91407336 44.59706832 190.88794123 44.59245348 202.86196297 C44.59021481 209.57597149 44.59582687 216.28974625 44.62034607 223.00371742 C44.64265115 229.31989583 44.6407034 235.63561676 44.62041855 241.95179749 C44.61701518 244.26401311 44.62206834 246.57625976 44.63640213 248.88843346 C44.72168261 263.67006111 44.25008417 275.37521895 34.6171875 287.37890625 C32.02260504 289.97975582 29.30504959 291.41103385 26 293 C25.34 293.33 24.68 293.66 24 294 C16.08 294 8.16 294 0 294 C0 196.98 0 99.96 0 0 Z " fill="#040404" transform="translate(1355,350)"/>
</svg>
